<?xml version="1.0" encoding="UTF-8"?>
<svg version="1.1" xmlns="http://www.w3.org/2000/svg" width="237" height="213">
<path d="M0 0 C0.55945313 -0.56847656 1.11890625 -1.13695313 1.6953125 -1.72265625 C11.6272974 -11.28738126 22.72078408 -17.3125 36.67236328 -17.3125 C47.82886767 -17.09251963 56.08989435 -12.81561633 64 -5 C73.76181747 6.27658226 76.30376673 18.04466876 75.27490234 32.59863281 C73.54679921 47.69421222 65.62579086 59.66927201 56 71 C55.32195312 71.80179687 54.64390625 72.60359375 53.9453125 73.4296875 C43.61536736 85.27317772 31.91912112 95.11386466 19 104 C18.26040039 104.51079102 17.52080078 105.02158203 16.75878906 105.54785156 C14.47555075 107.1120963 12.17894108 108.65394233 9.875 110.1875 C9.1644043 110.66968994 8.45380859 111.15187988 7.72167969 111.64868164 C7.04782227 112.08817139 6.37396484 112.52766113 5.6796875 112.98046875 C5.08913574 113.37129639 4.49858398 113.76212402 3.89013672 114.16479492 C1.39167322 115.26880469 -0.2886432 115.31118599 -3 115 C-5.27319336 113.8894043 -5.27319336 113.8894043 -7.58984375 112.32421875 C-8.449729 111.74905518 -9.30961426 111.1738916 -10.19555664 110.58129883 C-11.10039795 109.95634521 -12.00523926 109.3313916 -12.9375 108.6875 C-13.87392334 108.05030029 -14.81034668 107.41310059 -15.77514648 106.7565918 C-39.97474766 90.13638637 -68.08961142 68.22451536 -75.4921875 38.31640625 C-77.64013153 24.28867946 -76.61492748 11.925578 -68.875 -0.1875 C-61.47260016 -10.09411595 -52.66085716 -14.70222157 -40.9375 -17.8125 C-24.5812927 -18.85651323 -11.89631517 -10.33101055 0 0 Z " fill="#E40507" transform="translate(119,64)"/>
<path d="M0 0 C0 0.66 0 1.32 0 2 C-2.84777943 4.61046448 -5.13066838 6.42676569 -9 7 C-8.67 8.32 -8.34 9.64 -8 11 C-11 12 -11 12 -13.4375 12.1875 C-17.12858898 13.35784528 -18.02306792 15.79600662 -20 19 C-20.66 19 -21.32 19 -22 19 C-22 19.99 -22 20.98 -22 22 C-22.66 22 -23.32 22 -24 22 C-20.9413111 12.21219552 -13.39621337 6.28552836 -5 1 C-2 0 -2 0 0 0 Z " fill="#D92728" transform="translate(71,49)"/>
<path d="M0 0 C-4.03686206 4.39729618 -8.47384253 7.49732233 -13.5 10.6875 C-14.61955078 11.41549805 -14.61955078 11.41549805 -15.76171875 12.15820312 C-19.40755823 14.49734792 -22.87080847 16.5990243 -27 18 C-27 16.02 -27 14.04 -27 12 C-26.67 12.66 -26.34 13.32 -26 14 C-24.35 14 -22.7 14 -21 14 C-21 12.68 -21 11.36 -21 10 C-19.68 10 -18.36 10 -17 10 C-17 9.34 -17 8.68 -17 8 C-15.68 8 -14.36 8 -13 8 C-13 7.34 -13 6.68 -13 6 C-12.01 6 -11.02 6 -10 6 C-10 5.34 -10 4.68 -10 4 C-9.01 4 -8.02 4 -7 4 C-7 3.01 -7 2.02 -7 1 C-4.53721199 -0.231394 -2.7204945 -0.07159196 0 0 Z " fill="#D53B3E" transform="translate(146,161)"/>
<path d="M0 0 C1.84765625 1.6640625 1.84765625 1.6640625 3 3 C0 3 0 3 -2.375 2 C-4.95064142 0.82961589 -4.95064142 0.82961589 -7.6875 1.0625 C-8.450625 1.041875 -9.21375 1.02125 -10 1 C-10.66 0.01 -11.32 -0.98 -12 -2 C-14.75711269 -2.54501065 -17.34152546 -2.92549765 -20.125 -3.1875 C-20.87910156 -3.26935547 -21.63320312 -3.35121094 -22.41015625 -3.43554688 C-24.27216607 -3.6358897 -26.13595811 -3.81954036 -28 -4 C-28 -4.33 -28 -4.66 -28 -5 C-17.9833793 -7.37235753 -8.935437 -4.70572481 0 0 Z " fill="#D75356" transform="translate(103,52)"/>
<path d="M0 0 C4.74220651 0.59277581 8.99293688 2.43477195 13 5 C13.99 6.485 13.99 6.485 15 8 C11.88772805 8 9.05847848 7.54372951 6 7 C5.67 6.01 5.34 5.02 5 4 C2.36 4 -0.28 4 -3 4 C-2.01 2.68 -1.02 1.36 0 0 Z " fill="#D73F40" transform="translate(163,48)"/>
<path d="M0 0 C1.65 0 3.3 0 5 0 C1.69984002 4.13937592 -1.17324411 7.58662205 -6 10 C-6 9.34 -6 8.68 -6 8 C-6.66 7.67 -7.32 7.34 -8 7 C-6.35 7 -4.7 7 -3 7 C-3 5.68 -3 4.36 -3 3 C-2.34 2.67 -1.68 2.34 -1 2 C-0.67 1.34 -0.34 0.68 0 0 Z " fill="#DC4C4C" transform="translate(164,141)"/>
<path d="M0 0 C0.78375 0.04125 1.5675 0.0825 2.375 0.125 C0.81999019 3.94184226 -1.66095495 6.31695732 -4.625 9.125 C-4.75 5.75 -4.75 5.75 -4.625 2.125 C-2.625 0.125 -2.625 0.125 0 0 Z " fill="#DB3434" transform="translate(173.625,131.875)"/>
<path d="M0 0 C2.86724686 0.57344937 3.8614515 0.8614515 6 3 C6 3.99 6 4.98 6 6 C7.32 6.33 8.64 6.66 10 7 C9.67 8.32 9.34 9.64 9 11 C7.49403892 9.54782324 5.99537896 8.08807139 4.5 6.625 C3.6646875 5.81289062 2.829375 5.00078125 1.96875 4.1640625 C0 2 0 2 0 0 Z " fill="#DA5A5A" transform="translate(63,135)"/>
<path d="M0 0 C1 3 1 3 0 6 C-2.0625 7.1875 -2.0625 7.1875 -4 8 C-4.99 7.01 -5.98 6.02 -7 5 C-6.67 4.34 -6.34 3.68 -6 3 C-5.01 3 -4.02 3 -3 3 C-1.31201173 1.56249809 -1.31201173 1.56249809 0 0 Z " fill="#DB4748" transform="translate(123,60)"/>
<path d="M0 0 C5.01113235 1.4317521 6.94469549 3.98445693 10 8 C9.01 8.495 9.01 8.495 8 9 C8 8.34 8 7.68 8 7 C7.236875 6.9175 6.47375 6.835 5.6875 6.75 C2.45284809 5.84730645 1.64900735 4.86406539 0 2 C0 1.34 0 0.68 0 0 Z " fill="#D65051" transform="translate(106,55)"/>
<path d="M0 0 C0.33 0.99 0.66 1.98 1 3 C-0.8125 6.1875 -0.8125 6.1875 -3 9 C-3.66 9 -4.32 9 -5 9 C-5 9.99 -5 10.98 -5 12 C-5.66 12 -6.32 12 -7 12 C-5.44298069 7.32894208 -2.91552627 3.91294315 0 0 Z " fill="#D65958" transform="translate(54,59)"/>
<path d="M0 0 C0 0.66 0 1.32 0 2 C-0.99 2.33 -1.98 2.66 -3 3 C-3.33 3.66 -3.66 4.32 -4 5 C-4.66 5 -5.32 5 -6 5 C-6 5.66 -6 6.32 -6 7 C-7.98 7.33 -9.96 7.66 -12 8 C-4.43243243 0 -4.43243243 0 0 0 Z " fill="#D5524F" transform="translate(136,52)"/>
<path d="M0 0 C1.65 0 3.3 0 5 0 C5.33 0.99 5.66 1.98 6 3 C7.49985609 4.66710346 7.49985609 4.66710346 9 6 C5.37546731 6 3.92079805 5.07530387 1 3 C0.67 2.01 0.34 1.02 0 0 Z " fill="#D74242" transform="translate(109,172)"/>
<path d="M0 0 C1.32 0 2.64 0 4 0 C4.33 1.32 4.66 2.64 5 4 C6.32 4 7.64 4 9 4 C8.67 4.99 8.34 5.98 8 7 C1.125 3.375 1.125 3.375 0 0 Z " fill="#D54547" transform="translate(87,157)"/>
<path d="M0 0 C1.9375 1.375 1.9375 1.375 2.6875 4 C2.77 4.78375 2.8525 5.5675 2.9375 6.375 C1.9475 6.375 0.9575 6.375 -0.0625 6.375 C-2.25 3.375 -2.25 3.375 -4.0625 0.375 C-2.0625 -0.625 -2.0625 -0.625 0 0 Z " fill="#D73132" transform="translate(61.0625,127.625)"/>
<path d="M0 0 C0.66 0 1.32 0 2 0 C2 0.66 2 1.32 2 2 C2.66 2.33 3.32 2.66 4 3 C5.3703055 4.97485205 6.70672372 6.97386717 8 9 C7.34 9.66 6.68 10.32 6 11 C4.99735282 9.35577799 3.99794896 7.70957779 3 6.0625 C2.443125 5.14597656 1.88625 4.22945313 1.3125 3.28515625 C0 1 0 1 0 0 Z " fill="#D9514E" transform="translate(50,117)"/>
<path d="M0 0 C-1.62339805 1.70884005 -3.29319053 3.37446717 -5 5 C-5.66 5 -6.32 5 -7 5 C-7 3.68 -7 2.36 -7 1 C-4.53721199 -0.231394 -2.7204945 -0.07159196 0 0 Z " fill="#DD5255" transform="translate(146,161)"/>
<path d="M0 0 C2.875 -0.1875 2.875 -0.1875 6 0 C6.66 0.99 7.32 1.98 8 3 C6.25 3.75 6.25 3.75 4 4 C1.75 2.0625 1.75 2.0625 0 0 Z " fill="#D74342" transform="translate(95,164)"/>
<path d="M0 0 C1.65 0 3.3 0 5 0 C5 0.99 5 1.98 5 3 C3.02 3.99 3.02 3.99 1 5 C0.67 3.35 0.34 1.7 0 0 Z " fill="#DC3639" transform="translate(145,156)"/>
<path d="M0 0 C0.99 0 1.98 0 3 0 C2.45773019 3.79588866 0.79872437 5.47211993 -2 8 C-2 6.68 -2 5.36 -2 4 C-1.34 4 -0.68 4 0 4 C0 2.68 0 1.36 0 0 Z " fill="#D75151" transform="translate(181,121)"/>
<path d="M0 0 C0.66 0 1.32 0 2 0 C1.50168276 3.68754757 0.89932357 5.60490662 -2 8 C-2 6.02 -2 4.04 -2 2 C-1.34 2 -0.68 2 0 2 C0 1.34 0 0.68 0 0 Z " fill="#D95855" transform="translate(187,112)"/>
<path d="M0 0 C0.33 0.66 0.66 1.32 1 2 C2.98 2 4.96 2 7 2 C5.35 3.32 3.7 4.64 2 6 C1.34 5.67 0.68 5.34 0 5 C0 3.35 0 1.7 0 0 Z " fill="#DC514F" transform="translate(119,173)"/>
<path d="M0 0 C1.65 0.33 3.3 0.66 5 1 C4.01 2.485 4.01 2.485 3 4 C-0.125 4.1875 -0.125 4.1875 -3 4 C-2.01 2.68 -1.02 1.36 0 0 Z " fill="#DD3434" transform="translate(163,48)"/>
<path d="M0 0 C0.33 0 0.66 0 1 0 C1.1875 3.375 1.1875 3.375 1 7 C0.01 7.66 -0.98 8.32 -2 9 C-1.125 2.25 -1.125 2.25 0 0 Z " fill="#DD5E61" transform="translate(46,71)"/>
<path d="M0 0 C0 0.66 0 1.32 0 2 C-3.22791555 4.1519437 -4.28400809 4.20086443 -8 4 C-5.57415142 1.34311822 -3.76063134 0 0 0 Z " fill="#D9595B" transform="translate(71,49)"/>
</svg>
